<svg xmlns="http://www.w3.org/2000/svg" xmlns:xlink="http://www.w3.org/1999/xlink" viewBox="0 0 27.692 27">
  <defs>
    <linearGradient id="linear-gradient" x1="0.5" x2="0.5" y2="1" gradientUnits="objectBoundingBox">
      <stop offset="0" stop-color="#fff" />
      <stop offset="1" stop-color="gray" />
    </linearGradient>
  </defs>
  <path id="Icon_awesome-github" data-name="Icon awesome-github" d="M9.262,22.3c0,.112-.128.2-.29.2-.184.017-.313-.073-.313-.2,0-.112.128-.2.29-.2C9.117,22.085,9.262,22.174,9.262,22.3Zm-1.736-.251c-.039.112.073.24.24.274a.262.262,0,0,0,.346-.112c.033-.112-.073-.24-.24-.29A.287.287,0,0,0,7.526,22.052Zm2.468-.095c-.162.039-.274.145-.257.274.017.112.162.184.329.145s.274-.145.257-.257S10.156,21.94,9.994,21.957ZM13.667.563A13.388,13.388,0,0,0,0,14.185,14,14,0,0,0,9.463,27.54c.715.128.966-.313.966-.676,0-.346-.017-2.256-.017-3.428,0,0-3.908.837-4.729-1.664,0,0-.636-1.625-1.552-2.043,0,0-1.279-.877.089-.86a2.947,2.947,0,0,1,2.155,1.44,2.951,2.951,0,0,0,4.07,1.167,3.1,3.1,0,0,1,.893-1.881c-3.121-.346-6.27-.8-6.27-6.169a4.231,4.231,0,0,1,1.318-3.288,5.275,5.275,0,0,1,.145-3.791c1.167-.363,3.852,1.507,3.852,1.507a13.189,13.189,0,0,1,7.012,0s2.685-1.876,3.852-1.507a5.272,5.272,0,0,1,.145,3.791,4.34,4.34,0,0,1,1.44,3.288c0,5.388-3.288,5.818-6.409,6.169a3.3,3.3,0,0,1,.949,2.591c0,1.881-.017,4.21-.017,4.667,0,.363.257.8.966.676a13.868,13.868,0,0,0,9.368-13.343A13.689,13.689,0,0,0,13.667.563ZM5.427,19.818c-.073.056-.056.184.039.29.089.089.218.128.29.056.073-.056.056-.184-.039-.29C5.628,19.785,5.5,19.746,5.427,19.818Zm-.6-.452c-.039.073.017.162.128.218a.166.166,0,0,0,.24-.039c.039-.073-.017-.162-.128-.218C4.952,19.294,4.863,19.31,4.824,19.366Zm1.809,1.988c-.089.073-.056.24.073.346.128.128.29.145.363.056.073-.073.039-.24-.073-.346C6.873,21.281,6.705,21.264,6.633,21.354ZM6,20.533c-.089.056-.089.2,0,.329s.24.184.313.128a.255.255,0,0,0,0-.346C6.231,20.516,6.086,20.46,6,20.533Z" transform="translate(0 -0.563)" fill="url(#linear-gradient)" />
</svg>