<svg xmlns="http://www.w3.org/2000/svg" xmlns:xlink="http://www.w3.org/1999/xlink" viewBox="0 0 38.4 27">
  <defs>
    <linearGradient id="linear-gradient" x1="0.546" x2="0.546" y2="1" gradientUnits="objectBoundingBox">
      <stop offset="0" stop-color="#ff0f0f" />
      <stop offset="1" stop-color="#920000" />
    </linearGradient>
  </defs>
  <path id="Icon_awesome-youtube" data-name="Icon awesome-youtube" d="M38.648,8.725a4.825,4.825,0,0,0-3.395-3.417c-2.995-.808-15-.808-15-.808s-12.008,0-15,.808A4.825,4.825,0,0,0,1.852,8.725c-.8,3.014-.8,9.3-.8,9.3s0,6.289.8,9.3a4.753,4.753,0,0,0,3.395,3.362c2.995.808,15,.808,15,.808s12.008,0,15-.808a4.753,4.753,0,0,0,3.395-3.362c.8-3.014.8-9.3.8-9.3s0-6.289-.8-9.3ZM16.323,23.737V12.318l10.036,5.71L16.323,23.737Z" transform="translate(-1.05 -4.5)" fill="url(#linear-gradient)" />
</svg>