<svg xmlns="http://www.w3.org/2000/svg" width="74.989" height="73.115" viewBox="0 0 74.989 73.115">
  <path id="Icon_awesome-github" data-name="Icon awesome-github" d="M25.082,59.435c0,.3-.348.544-.786.544-.5.045-.847-.2-.847-.544,0-.3.348-.544.786-.544C24.689,58.846,25.082,59.087,25.082,59.435Zm-4.7-.68c-.106.3.2.65.65.741a.709.709,0,0,0,.937-.3c.091-.3-.2-.65-.65-.786A.776.776,0,0,0,20.38,58.755Zm6.683-.257c-.438.106-.741.393-.7.741.045.3.438.5.892.393.438-.106.741-.393.7-.7C27.909,58.649,27.5,58.452,27.063,58.5ZM37.011.563C16.041.563,0,16.483,0,37.452A37.9,37.9,0,0,0,25.626,73.617c1.935.348,2.616-.847,2.616-1.829,0-.937-.045-6.108-.045-9.283,0,0-10.583,2.268-12.806-4.505,0,0-1.724-4.4-4.2-5.533,0,0-3.462-2.374.242-2.328a7.981,7.981,0,0,1,5.836,3.9c3.311,5.836,8.86,4.158,11.022,3.16a8.4,8.4,0,0,1,2.419-5.1c-8.451-.937-16.978-2.162-16.978-16.706,0-4.158,1.149-6.244,3.568-8.9a14.284,14.284,0,0,1,.393-10.266c3.16-.983,10.432,4.082,10.432,4.082a35.717,35.717,0,0,1,18.989,0s7.272-5.08,10.432-4.082a14.278,14.278,0,0,1,.393,10.266c2.419,2.676,3.9,4.762,3.9,8.9,0,14.59-8.9,15.754-17.356,16.706,1.391,1.194,2.57,3.462,2.57,7.015,0,5.1-.045,11.4-.045,12.639,0,.983.7,2.177,2.616,1.829,15.119-5.019,25.369-19.367,25.369-36.134C74.989,16.483,57.981.563,37.011.563ZM14.7,52.707c-.2.151-.151.5.106.786.242.242.59.348.786.151.2-.151.151-.5-.106-.786C15.24,52.617,14.892,52.511,14.7,52.707Zm-1.633-1.225c-.106.2.045.438.348.59a.45.45,0,0,0,.65-.106c.106-.2-.045-.438-.348-.59C13.41,51.286,13.168,51.331,13.063,51.483Zm4.9,5.382c-.242.2-.151.65.2.937.348.348.786.393.983.151.2-.2.106-.65-.2-.937C18.611,56.668,18.158,56.623,17.961,56.865Zm-1.724-2.222c-.242.151-.242.544,0,.892s.65.5.847.348a.69.69,0,0,0,0-.937C16.873,54.6,16.48,54.446,16.238,54.642Z" transform="translate(0 -0.563)" fill="#fff" />
</svg>