<svg xmlns="http://www.w3.org/2000/svg" width="73.131" height="73.115" viewBox="0 0 73.131 73.115">
  <path id="Icon_awesome-instagram" data-name="Icon awesome-instagram" d="M36.568,20.049A18.746,18.746,0,1,0,55.314,38.8,18.716,18.716,0,0,0,36.568,20.049Zm0,30.933A12.187,12.187,0,1,1,48.756,38.8,12.209,12.209,0,0,1,36.568,50.982Zm23.885-31.7a4.372,4.372,0,1,1-4.372-4.372A4.362,4.362,0,0,1,60.453,19.283ZM72.869,23.72c-.277-5.857-1.615-11.045-5.906-15.32C62.688,4.126,57.5,2.788,51.643,2.495c-6.036-.343-24.13-.343-30.166,0-5.841.277-11.029,1.615-15.32,5.89S.545,17.847.252,23.7c-.343,6.036-.343,24.13,0,30.166.277,5.857,1.615,11.045,5.906,15.32S15.62,74.8,21.477,75.1c6.036.343,24.13.343,30.166,0,5.857-.277,11.045-1.615,15.32-5.906,4.274-4.274,5.612-9.463,5.906-15.32.343-6.036.343-24.113,0-30.15Zm-7.8,36.627a12.338,12.338,0,0,1-6.95,6.95c-4.813,1.909-16.233,1.468-21.552,1.468S19.813,69.19,15.017,67.3a12.339,12.339,0,0,1-6.95-6.95C6.158,55.534,6.6,44.114,6.6,38.8S6.174,22.04,8.066,17.243a12.339,12.339,0,0,1,6.95-6.95C19.829,8.384,31.25,8.825,36.568,8.825S53.324,8.4,58.12,10.293a12.339,12.339,0,0,1,6.95,6.95c1.909,4.813,1.468,16.233,1.468,21.552S66.979,55.55,65.07,60.347Z" transform="translate(0.005 -2.237)" fill="#fff" />
</svg>