<svg xmlns="http://www.w3.org/2000/svg" xmlns:xlink="http://www.w3.org/1999/xlink" viewBox="0 0 27.001 27">
  <defs>
    <linearGradient id="linear-gradient" x1="0.5" x2="0.5" y2="1" gradientUnits="objectBoundingBox">
      <stop offset="0" stop-color="#5494e1" />
      <stop offset="1" stop-color="#1b58a2" />
    </linearGradient>
  </defs>
  <path id="Icon_awesome-linkedin-in" data-name="Icon awesome-linkedin-in" d="M6.044,27H.446V8.974h5.6ZM3.242,6.515A3.257,3.257,0,1,1,6.484,3.243,3.269,3.269,0,0,1,3.242,6.515ZM26.995,27H21.409V18.226c0-2.091-.042-4.773-2.91-4.773-2.91,0-3.356,2.272-3.356,4.623V27H9.55V8.974h5.369v2.459H15a5.882,5.882,0,0,1,5.3-2.911C25.959,8.522,27,12.253,27,17.1V27Z" transform="translate(0 -0.001)" fill="url(#linear-gradient)" />
</svg>