<svg xmlns="http://www.w3.org/2000/svg" xmlns:xlink="http://www.w3.org/1999/xlink" viewBox="0 0 27 27">
  <defs>
    <linearGradient id="linear-gradient" x1="0.5" x2="0.5" y2="1" gradientUnits="objectBoundingBox">
      <stop offset="0" stop-color="#34b660" />
      <stop offset="1" stop-color="#005f24" />
    </linearGradient>
  </defs>
  <path id="Icon_awesome-spotify" data-name="Icon awesome-spotify" d="M13.5.563A13.5,13.5,0,1,0,27,14.063,13.5,13.5,0,0,0,13.5.563Zm5.482,19.864a1.039,1.039,0,0,1-.582-.2C15,18.183,11.05,18.1,7.147,18.9a3.515,3.515,0,0,1-.648.142.848.848,0,0,1-.86-.86.863.863,0,0,1,.74-.915c4.458-.985,9.015-.9,12.9,1.426a.921.921,0,0,1,.528.9.823.823,0,0,1-.827.838Zm1.464-3.571a1.344,1.344,0,0,1-.67-.229,17.641,17.641,0,0,0-12.988-1.6,2.242,2.242,0,0,1-.648.142,1.057,1.057,0,0,1-1.056-1.056,1.071,1.071,0,0,1,.844-1.127,18.31,18.31,0,0,1,5.324-.74,19.055,19.055,0,0,1,9.635,2.477,1.135,1.135,0,0,1,.615,1.072,1.055,1.055,0,0,1-1.056,1.061Zm1.688-4.148a1.252,1.252,0,0,1-.7-.212C17.555,10.181,10.626,9.626,6.14,10.878a2.586,2.586,0,0,1-.7.142A1.256,1.256,0,0,1,4.17,9.735a1.286,1.286,0,0,1,.947-1.3,22.815,22.815,0,0,1,6.4-.827,22.991,22.991,0,0,1,11.181,2.6,1.278,1.278,0,0,1,.7,1.23,1.261,1.261,0,0,1-1.263,1.268Z" transform="translate(0 -0.563)" fill="url(#linear-gradient)" />
</svg>