<svg xmlns="http://www.w3.org/2000/svg" xmlns:xlink="http://www.w3.org/1999/xlink" width="90.023" height="73.115" viewBox="0 0 90.023 73.115">
  <defs>
    <linearGradient id="linear-gradient" x1="0.5" x2="0.5" y2="1" gradientUnits="objectBoundingBox">
      <stop offset="0" stop-color="#3e88b9" />
      <stop offset="1" stop-color="#095bfe" />
    </linearGradient>
  </defs>
  <path id="Icon_awesome-twitter" data-name="Icon awesome-twitter" d="M80.77,21.6c.057.8.057,1.6.057,2.4,0,24.391-18.564,52.495-52.495,52.495A52.139,52.139,0,0,1,0,68.214a38.168,38.168,0,0,0,4.455.228A36.95,36.95,0,0,0,27.361,60.56a18.483,18.483,0,0,1-17.251-12.8,23.267,23.267,0,0,0,3.485.286,19.514,19.514,0,0,0,4.855-.628A18.453,18.453,0,0,1,3.656,29.314v-.228A18.581,18.581,0,0,0,12,31.427,18.478,18.478,0,0,1,6.283,6.751,52.444,52.444,0,0,0,44.326,26.058a20.828,20.828,0,0,1-.457-4.227A18.468,18.468,0,0,1,75.8,9.207,36.325,36.325,0,0,0,87.51,4.752,18.4,18.4,0,0,1,79.4,14.919a36.987,36.987,0,0,0,10.625-2.856A39.661,39.661,0,0,1,80.77,21.6Z" transform="translate(0 -3.381)" fill="url(#linear-gradient)" />
</svg>